<svg xmlns="http://www.w3.org/2000/svg" width="225" height="119" fill="none" viewBox="0 0 225 119"><mask id="a" width="225" height="119" x="0" y="0" maskUnits="userSpaceOnUse" style="mask-type:alpha"><path fill="#fff" d="M0 0h225v119H0z"/></mask><g mask="url(#a)"><path fill="#171717" d="M32.113 78V61.68h3.74V78zm10.846 0v-9.724q0-1.632-1.02-2.516-1.02-.918-2.516-.918-1.02 0-1.836.408a3.17 3.17 0 0 0-1.258 1.19q-.476.748-.476 1.836l-1.462-.816q0-1.87.816-3.23a5.65 5.65 0 0 1 2.21-2.108q1.395-.782 3.128-.782t3.128.748a5.65 5.65 0 0 1 2.21 2.108q.816 1.36.816 3.264V78zm10.846 0v-9.724q0-1.632-1.02-2.516-1.02-.918-2.516-.918-.986 0-1.802.408a3.1 3.1 0 0 0-1.292 1.19q-.476.748-.476 1.836l-2.108-.816q.17-1.87 1.088-3.23a6.35 6.35 0 0 1 2.346-2.108 6.7 6.7 0 0 1 3.196-.782q1.768 0 3.196.748a5.83 5.83 0 0 1 2.278 2.108q.85 1.36.85 3.264V78zm14.427.34q-2.21 0-4.012-1.122-1.768-1.122-2.822-3.026-1.02-1.938-1.02-4.318 0-2.415 1.02-4.318 1.055-1.938 2.822-3.06 1.803-1.156 4.012-1.156 1.87 0 3.298.816a5.93 5.93 0 0 1 2.312 2.176q.85 1.394.85 3.162v4.692q0 1.769-.85 3.162a5.93 5.93 0 0 1-2.278 2.21q-1.461.782-3.332.782m.612-3.536q2.075 0 3.332-1.394 1.292-1.395 1.292-3.57 0-1.462-.578-2.584a4.16 4.16 0 0 0-1.632-1.734q-1.02-.645-2.414-.646-1.36 0-2.414.646-1.02.612-1.632 1.734-.578 1.123-.578 2.584t.578 2.584a4.7 4.7 0 0 0 1.632 1.768q1.055.612 2.414.612M73.23 78v-4.386l.646-3.978-.646-3.944V61.68h3.74V78zm20.036.34q-1.36 0-2.619-.34a9.7 9.7 0 0 1-2.312-1.02 7.9 7.9 0 0 1-1.835-1.632l2.38-2.38a5.8 5.8 0 0 0 1.938 1.496q1.121.476 2.516.476 1.257 0 1.903-.374t.647-1.088q0-.748-.612-1.156-.613-.408-1.599-.68a58 58 0 0 0-2.04-.612 11.3 11.3 0 0 1-2.04-.816 4.6 4.6 0 0 1-1.564-1.462q-.61-.918-.611-2.38 0-1.564.713-2.686.749-1.122 2.075-1.734 1.36-.612 3.23-.612 1.971 0 3.467.714a6.3 6.3 0 0 1 2.55 2.074l-2.38 2.38q-.713-.884-1.631-1.326t-2.108-.442q-1.123 0-1.734.34-.612.34-.612.986 0 .68.612 1.054.611.375 1.564.646a50 50 0 0 1 2.04.612 8.2 8.2 0 0 1 2.04.884q.986.544 1.597 1.496.613.918.613 2.414 0 2.38-1.666 3.774t-4.522 1.394m16.853 0q-2.448 0-4.42-1.088a8.5 8.5 0 0 1-3.094-3.06q-1.122-1.938-1.122-4.352t1.122-4.318a8.34 8.34 0 0 1 3.026-3.06q1.938-1.122 4.284-1.122 2.278 0 4.012 1.054a7.34 7.34 0 0 1 2.754 2.89q1.02 1.836 1.02 4.182 0 .408-.068.85a8 8 0 0 1-.136.918h-13.396v-3.06h11.458l-1.394 1.224q-.068-1.496-.578-2.516a3.6 3.6 0 0 0-1.462-1.564q-.918-.544-2.278-.544-1.428 0-2.482.612a4.16 4.16 0 0 0-1.632 1.734q-.578 1.088-.578 2.618t.612 2.686q.612 1.155 1.734 1.802 1.122.612 2.584.612 1.258 0 2.312-.442a4.8 4.8 0 0 0 1.836-1.292l2.38 2.414a7.6 7.6 0 0 1-2.89 2.108 9.2 9.2 0 0 1-3.604.714m21.766-.34v-9.418q0-1.632-1.054-2.686-1.02-1.054-2.652-1.054-1.087 0-1.938.476a3.4 3.4 0 0 0-1.326 1.326q-.476.85-.476 1.938l-1.462-.816q0-1.87.816-3.298a5.86 5.86 0 0 1 2.244-2.278q1.462-.85 3.264-.85 1.836 0 3.264.952a6.56 6.56 0 0 1 2.244 2.414q.816 1.462.816 3.06V78zm-11.186 0V61.68h3.74V78zm24.065.34q-1.36 0-2.618-.34a9.7 9.7 0 0 1-2.312-1.02 7.9 7.9 0 0 1-1.836-1.632l2.38-2.38a5.8 5.8 0 0 0 1.938 1.496q1.121.476 2.516.476 1.257 0 1.904-.374.646-.374.646-1.088 0-.748-.612-1.156t-1.598-.68a58 58 0 0 0-2.04-.612 11.3 11.3 0 0 1-2.04-.816 4.6 4.6 0 0 1-1.564-1.462q-.612-.918-.612-2.38 0-1.564.714-2.686.748-1.122 2.074-1.734 1.36-.612 3.23-.612 1.971 0 3.468.714a6.3 6.3 0 0 1 2.55 2.074l-2.38 2.38q-.714-.884-1.632-1.326t-2.108-.442q-1.122 0-1.734.34t-.612.986q0 .68.612 1.054.612.375 1.564.646.986.272 2.04.612a8.2 8.2 0 0 1 2.04.884 4.4 4.4 0 0 1 1.598 1.496q.612.918.612 2.414 0 2.38-1.666 3.774t-4.522 1.394"/><path fill="#231f20" d="M1292.07-1.726v118.827h-26.53V89.969h-3.73v27.132h-28.39V89.969h-3.73v27.132h-28.4V89.969h-3.73v27.132h-28.4V89.969h-3.73v27.132h-27.46V33.889h-5.6v83.212h-27.46V89.969h-3.73v27.132h-28.4V89.969h-3.73v27.132h-28.39V89.969h-3.73v27.132h-28.4V89.969h-3.73v27.132h-26.529V-1.726h-7.458v118.827h-26.536V89.969h-3.73v27.132h-28.393V89.969h-3.729v27.132h-28.401V89.969h-3.729v27.132h-28.393V89.969h-3.729v27.132h-27.469V33.889h-5.594v83.212h-27.46V89.969h-3.73v27.132h-28.4V89.969h-3.73v27.132h-28.393V89.969h-3.729v27.132h-28.4V89.969h-3.73v27.132H657.01V-1.726h-7.459v118.827h-26.536V89.969h-3.729v27.132h-28.393V89.969h-3.73v27.132h-28.4V89.969h-3.73v27.132H526.64V89.969h-3.729v27.132H495.45V33.889h-5.594v83.212h-27.468V89.969h-3.729v27.132h-28.393V89.969h-3.73v27.132h-28.4V89.969h-3.73v27.132h-28.393V89.969h-3.729v27.132h-26.536V-1.726h-7.459v118.827h-26.528V89.969h-3.73v27.132h-28.4V89.969h-3.729v27.132h-28.393V89.969h-3.73v27.132h-28.4V89.969h-3.73v27.132h-27.46V33.889h-5.595v83.212h-27.467V89.969h-3.73v27.132h-28.393V89.969h-3.729v27.132H76.874V89.969h-3.729v27.132H44.752V89.969h-3.73v27.132H14.494V-1.726h-7.46v118.827H-19.5V89.969h-3.73v27.132h-28.4V89.969h-3.73v27.132h-28.393V89.969h-3.729v27.132h-28.401V89.969h-3.729v27.132h-27.461V33.889h-5.594v83.212h-27.468V89.969h-3.73v27.132h-28.392V89.969h-3.73v27.132h-28.4V89.969h-3.73v27.132h-28.393V89.969h-3.729v27.132h-26.528V-1.726h-7.459v118.827h-26.536V89.969h-3.729v27.132h-28.401V89.969h-3.729v27.132h-28.393V89.969h-3.73v27.132h-28.397V89.969h-3.729v27.132h-27.464V33.889h-5.594v83.212h-27.465V89.969h-3.729v27.132h-28.397V89.969h-3.729v27.132h-28.397V89.969h-3.73v27.132h-28.396V89.969h-3.73v27.132h-26.528V-1.726h-7.459v118.827h-26.536V89.969h-3.729v27.132h-28.397V89.969h-3.729v27.132h-28.397V89.969h-3.729v27.132h-28.397V89.969h-3.729v27.132h-27.465V33.889h-5.594v83.212h-27.464V89.969h-3.73v27.132h-28.397V89.969h-3.729v27.132h-28.397V89.969h-3.729v27.132h-28.397V89.969h-3.729v27.132h-26.529V-1.726h-7.458v118.827h-26.532V89.969h-3.73v27.132h-28.399V89.969h-3.73v27.132h-28.39V89.969h-3.73v27.132h-28.4V89.969h-3.73v27.132h-27.46V33.889h-5.6v83.212h-27.46V89.969h-3.73v27.132h-28.4V89.969h-3.73v27.132h-28.4V89.969h-3.72v27.132h-28.4V89.969h-3.73v27.132h-26.53V-1.726h-7.46v118.827h-26.53V89.969h-3.73v27.132h-28.4V89.969h-3.73v27.132h-28.4V89.969h-3.73v27.132h-28.39V89.969h-3.73v27.132h-27.47V33.889h-5.59v83.212h-27.46V89.969h-3.73v27.132h-28.4V89.969h-3.73v27.132h-28.4V89.969h-3.73v27.132h-28.39V89.969h-3.73v27.132h-26.53V-1.726h-7.46v118.827h-26.53V89.969h-3.73v27.132h-28.4V89.969h-3.73v27.132h-28.4V89.969h-3.73v27.132h-28.39V89.969h-3.73v27.132h-27.47V33.889h-5.59v83.212h-27.47V89.969h-3.73v27.132h-28.39V89.969h-3.73v27.132h-28.4V89.969h-3.73v27.132h-28.39V89.969h-3.73v27.132h-26.53V-1.726h-7.46V237.79h7.46V118.966h26.53v27.133h3.73v-27.133h28.39v27.133h3.73v-27.133h28.4v27.133h3.73v-27.133h28.39v27.133h3.73v-27.133h27.47v83.213h5.59v-83.213h27.47v27.133h3.73v-27.133h28.39v27.133h3.73v-27.133h28.4v27.133h3.73v-27.133h28.4v27.133h3.73v-27.133h26.53V237.79h7.46V118.966h26.53v27.133h3.73v-27.133h28.39v27.133h3.73v-27.133h28.4v27.133h3.73v-27.133h28.4v27.133h3.73v-27.133h27.46v83.213h5.59v-83.213h27.47v27.133h3.73v-27.133h28.39v27.133h3.73v-27.133h28.4v27.133h3.73v-27.133h28.4v27.133h3.73v-27.133h26.53V237.79h7.46V118.966h26.53v27.133h3.73v-27.133h28.4v27.133h3.72v-27.133h28.4v27.133h3.73v-27.133h28.4v27.133h3.73v-27.133h27.46v83.213h5.6v-83.213h27.46v27.133h3.73v-27.133h28.4v27.133h3.73v-27.133h28.39v27.133h3.73v-27.133h28.399v27.133h3.73v-27.133h26.532V237.79h7.458V118.966h26.529v27.133h3.729v-27.133h28.397v27.133h3.729v-27.133h28.397v27.133h3.729v-27.133h28.397v27.133h3.73v-27.133h27.464v83.213h5.594v-83.213h27.465v27.133h3.729v-27.133h28.397v27.133h3.729v-27.133h28.397v27.133h3.729v-27.133h28.397v27.133h3.729v-27.133h26.536V237.79h7.459V118.966h26.528v27.133h3.73v-27.133h28.396v27.133h3.73v-27.133h28.397v27.133h3.729v-27.133h28.397v27.133h3.729v-27.133h27.465v83.213h5.594v-83.213h27.464v27.133h3.729v-27.133h28.397v27.133h3.73v-27.133h28.393v27.133h3.729v-27.133h28.401v27.133h3.729v-27.133h26.536V237.79h7.459V118.966h26.528v27.133h3.729v-27.133h28.393v27.133h3.73v-27.133h28.4v27.133h3.73v-27.133h28.392v27.133h3.73v-27.133h27.468v83.213h5.594v-83.213h27.461v27.133h3.729v-27.133h28.401v27.133h3.73v-27.133h28.392v27.133h3.73v-27.133h28.4v27.133h3.73v-27.133H7.035V237.79h7.459V118.966h26.528v27.133h3.73v-27.133h28.393v27.133h3.729v-27.133h28.401v27.133h3.729v-27.133h28.393v27.133h3.73v-27.133h27.467v83.213h5.595v-83.213h27.46v27.133h3.73v-27.133h28.4v27.133h3.73v-27.133h28.393v27.133h3.729v-27.133h28.4v27.133h3.73v-27.133h26.528V237.79h7.459V118.966h26.536v27.133h3.729v-27.133h28.393v27.133h3.73v-27.133h28.4v27.133h3.73v-27.133h28.393v27.133h3.729v-27.133h27.468v83.213h5.594v-83.213h27.461v27.133h3.729v-27.133h28.393v27.133h3.73v-27.133h28.4v27.133h3.73v-27.133h28.393v27.133h3.729v-27.133h26.536V237.79h7.459V118.966h26.528v27.133h3.73v-27.133h28.4v27.133h3.729v-27.133h28.393v27.133h3.73v-27.133h28.4v27.133h3.73v-27.133h27.46v83.213h5.594v-83.213h27.469v27.133h3.729v-27.133h28.393v27.133h3.729v-27.133h28.401v27.133h3.729v-27.133h28.393v27.133h3.73v-27.133h26.536V237.79h7.458V118.966h26.529v27.133h3.73v-27.133h28.4v27.133h3.73v-27.133h28.39v27.133h3.73v-27.133h28.4v27.133h3.73v-27.133h27.46v83.213h5.6v-83.213h27.46v27.133h3.73v-27.133h28.4v27.133h3.73v-27.133h28.4v27.133h3.73v-27.133h28.39v27.133h3.73v-27.133h26.53V237.79h7.46V-1.726z"/></g></svg>