<?xml version="1.0" encoding="UTF-8"?>
<svg width="96px" height="18px" viewBox="0 0 96 18" version="1.1" xmlns="http://www.w3.org/2000/svg" xmlns:xlink="http://www.w3.org/1999/xlink">
    <title>Blanco_Logo_blau</title>
    <g id="Design---Kernseiten" stroke="none" stroke-width="1" fill="none" fill-rule="evenodd">
        <g id="Blanco_Logo_blau" fill="#333399">
            <path d="M5.6302,13.6562 L6.31553333,13.6562 C7.31486667,13.6562 8.75286667,13.6335333 8.75286667,12.2588667 C8.75286667,10.8628667 7.20286667,10.8861756 6.22753333,10.8861756 L5.6302,10.8861756 L5.6302,13.6562 Z M6.18286667,7.36153333 C7.07153333,7.36153333 8.06686667,7.27353333 8.06686667,6.11886667 C8.06686667,4.87886667 6.93686667,4.9682 6.0522,4.9682 L5.6302,4.9682 L5.6302,7.36153333 L6.18286667,7.36153333 Z M0.0002,0.932866667 L7.07153333,0.932866667 C10.3055333,0.932866667 13.6108667,1.70753333 13.6108667,5.5642 C13.6108667,7.02886667 12.8768667,8.54953333 11.4162,9.0142 C13.2315333,9.65753333 14.3848667,11.0402 14.3848667,13.0328667 C14.3848667,16.4715333 11.1928667,17.6455333 8.26686667,17.6455333 L0.0002,17.6455333 L0.0002,0.932866667 Z" id="Fill-1"></path>
            <polygon id="Fill-3" points="14.9818 0.932933333 21.0538 0.932933333 21.0538 12.2816 26.1538 12.2816 26.1538 17.6456 14.9818 17.6456"></polygon>
            <path d="M36.2313333,6.558 C36.2313333,7.264 35.0013333,11.6606667 35.0013333,11.6606667 L37.4386667,11.6606667 C37.4386667,11.6606667 36.2313333,7.302 36.2313333,6.558 L36.2313333,6.558 Z M33.4266667,17.7126667 L27,17.7126667 L32.8066667,1 L39.5226667,1 L45.4846667,17.7126667 L39.058,17.7126667 L38.5033333,15.6273333 L33.9166667,15.6273333 L33.4266667,17.7126667 Z" id="Fill-12"></path>
            <path d="M45.6426,0.932933333 L51.4746,0.932933333 L56.9259333,10.1976 L57.1006,10.1976 C56.8592667,8.80226667 56.5932667,7.3616 56.5932667,5.94293333 L56.5932667,0.932933333 L62.4012667,0.932933333 L62.4012667,17.6456 L56.5932667,17.6456 L51.2512667,8.8676 L51.0746,8.8676 C51.2732667,10.0216 51.4512667,11.1062667 51.4512667,12.2149333 L51.4512667,17.6456 L45.6426,17.6456 L45.6426,0.932933333 Z" id="Fill-5"></path>
            <path d="M76.1614667,7.71413333 C75.1861333,6.80546667 73.9668,6.03013333 72.5921333,6.03013333 C70.7761333,6.03013333 69.2894667,7.47213333 69.2894667,9.28746667 C69.2894667,11.1294667 70.8654667,12.5468 72.6821333,12.5468 C74.0794667,12.5468 75.1861333,11.9488 76.1614667,10.9968 L75.9821333,17.2461333 C75.0068,17.7121333 72.7481333,17.9108 71.6614667,17.9108 C66.8954667,17.9108 63.1708,14.2094667 63.1708,9.4428 C63.1708,4.56813333 67.0068,0.6668 71.9048,0.6668 C73.2788,0.6668 74.6994667,0.9108 75.9821333,1.3528 L76.1614667,7.71413333 Z" id="Fill-7"></path>
            <path d="M82.8860667,9.42186667 C82.8860667,11.3292 84.1727333,12.6358667 86.0107333,12.6358667 C87.8514,12.6358667 89.1367333,11.3292 89.1367333,9.42186667 C89.1367333,7.64853333 87.9407333,6.16386667 86.0107333,6.16386667 C84.0820667,6.16386667 82.8860667,7.64853333 82.8860667,9.42186667 L82.8860667,9.42186667 Z M95.2540667,9.3332 C95.2540667,14.6978667 91.1080667,17.9105333 86.0107333,17.9105333 C80.9127333,17.9105333 76.7694,14.6978667 76.7694,9.3332 C76.7694,4.07986667 80.9347333,0.666533333 86.0107333,0.666533333 C91.0867333,0.666533333 95.2540667,4.07986667 95.2540667,9.3332 L95.2540667,9.3332 Z" id="Fill-9"></path>
        </g>
    </g>
</svg>